<?xml version="1.0" encoding="utf-8"?>
<!-- Generator: Adobe Illustrator 16.0.4, SVG Export Plug-In . SVG Version: 6.00 Build 0)  -->
<!DOCTYPE svg PUBLIC "-//W3C//DTD SVG 1.1//EN" "http://www.w3.org/Graphics/SVG/1.1/DTD/svg11.dtd" [
	<!ENTITY ns_extend "http://ns.adobe.com/Extensibility/1.0/">
	<!ENTITY ns_ai "http://ns.adobe.com/AdobeIllustrator/10.0/">
	<!ENTITY ns_graphs "http://ns.adobe.com/Graphs/1.0/">
	<!ENTITY ns_vars "http://ns.adobe.com/Variables/1.0/">
	<!ENTITY ns_imrep "http://ns.adobe.com/ImageReplacement/1.0/">
	<!ENTITY ns_sfw "http://ns.adobe.com/SaveForWeb/1.0/">
	<!ENTITY ns_custom "http://ns.adobe.com/GenericCustomNamespace/1.0/">
	<!ENTITY ns_adobe_xpath "http://ns.adobe.com/XPath/1.0/">
]>
<svg version="1.1" id="Layer_1" xmlns:x="&ns_extend;" xmlns:i="&ns_ai;" xmlns:graph="&ns_graphs;"
	 xmlns="http://www.w3.org/2000/svg" xmlns:xlink="http://www.w3.org/1999/xlink" x="0px" y="0px" width="100px" height="95px"
	 viewBox="0 4 100 95" enable-background="new 0 4 100 95" xml:space="preserve">
<metadata>
	<sfw  xmlns="&ns_sfw;">
		<slices></slices>
		<sliceSourceBounds  height="94" width="100" x="549.5" y="2" bottomLeftOrigin="true"></sliceSourceBounds>
	</sfw>
</metadata>
<g id="Captions" display="none">
</g>
<path fill="#CCCCCC" d="M6,4.5h88c3.312,0,6,2.688,6,6v57c0,3.312-2.688,6-6,6H80v25l-25-25H6c-3.312,0-6-2.688-6-6v-57
	C0,7.188,2.688,4.5,6,4.5z M63.306,13.75H40.67l2.36,4.93l0.009,0.004c0.098,0.221,0.259,0.42,0.475,0.562
	c0.368,0.252,0.956,0.232,0.956,0.232h17.469c2.64,1.635,9.825,6.84,9.825,18.271l-0.006-0.02c0,9.268-4.627,14.75-7.913,17.367
	c-0.001,0.001-0.002,0.005-0.007,0.007C63.513,55.361,63.3,55.756,63.3,56.2c0,0.262,0.071,0.502,0.202,0.711v0.009l1.889,3.562
	c3.905-2.637,11.947-9.665,11.947-22.752l0.002,0.02C77.343,20.465,63.306,13.75,63.306,13.75 M57.316,56.969
	c0,0-0.002-0.001-0.005-0.004c-0.101-0.22-0.257-0.416-0.475-0.564c-0.372-0.248-0.784-0.227-0.784-0.227H38.067
	c-2.642-1.638-9.826-6.994-9.826-18.421c0-9.271,4.633-14.749,7.916-17.364c0.003-0.005,0.004-0.007,0.006-0.008
	c0.325-0.259,0.538-0.65,0.538-1.097c0-0.267-0.077-0.505-0.201-0.712v-0.009l-1.89-3.567c-3.907,2.645-11.948,9.666-11.948,22.756
	c0,17.284,14.033,23.998,14.033,23.998h23.033L57.316,56.969z M45.227,43.6v1.629c0,2.701,2.224,4.892,4.965,4.892
	c2.742,0,4.97-2.188,4.97-4.892V43.6H45.227z M41.918,25.718c0,0-1.048,0-1.048,0.945v10.368c0,0,0,0.943,1.048,0.943h2.159
	c0,0,1.05,0,1.05-0.943V26.663c0,0,0-0.945-1.05-0.945H41.918L41.918,25.718z M56.33,25.718c0,0-1.048,0-1.048,0.945v10.368
	c0,0,0,0.943,1.048,0.943h2.158c0,0,1.051,0,1.051-0.943V26.663c0,0,0-0.945-1.051-0.945H56.33L56.33,25.718z"/>
</svg>
