<?xml version="1.0" encoding="utf-8"?>
<!-- Generator: Adobe Illustrator 17.1.0, SVG Export Plug-In . SVG Version: 6.00 Build 0)  -->
<!DOCTYPE svg PUBLIC "-//W3C//DTD SVG 1.1//EN" "http://www.w3.org/Graphics/SVG/1.1/DTD/svg11.dtd">
<svg version="1.1" id="Layer_1" xmlns="http://www.w3.org/2000/svg" xmlns:xlink="http://www.w3.org/1999/xlink" x="0px" y="0px"
	 viewBox="0 0 89.3 46.6" enable-background="new 0 0 89.3 46.6" xml:space="preserve">
<path fill="#FC7E03" d="M89.3,13.8c0-0.1-1.9-8.1-7.9-9.7L58,4.2c0,0,0-0.1,0-0.1c0-2.2-1.5-4-3.3-4h-0.5v4.2H8.2l-0.1,0
	C8.1,4.2,0,6,0,13.1v20c0,7.1,8.1,8.9,8.1,9l46.1,0v4.5h0.5c1.8,0,3.3-1.8,3.3-4c0-0.2,0-0.3,0-0.5h23.3l0.1,0
	c5.8-1.5,7.8-9.1,7.9-9.5l0-0.1L89.3,13.8z M82,32.4c1,0,1.8,1.3,1.8,2.8c0,1.5-0.8,2.8-1.8,2.8c-1,0-1.8-1.3-1.8-2.8
	C80.2,33.7,81,32.4,82,32.4z M82,14.2c-1,0-1.8-1.3-1.8-2.8S81,8.5,82,8.5c1,0,1.8,1.3,1.8,2.8C83.8,12.9,83,14.2,82,14.2z
	 M61.5,37.9l-11.3-3.3V11.8l11.3-3.2C67.3,20.9,62.5,35.3,61.5,37.9z M12.7,10.2l12.2,2.6v21.1l-12.3,2.8
	C11.9,34.6,8.4,23.8,12.7,10.2z M21.6,39.2v-0.7c3.7-2.1,8.3-3.2,13.6-3.2c8.3,0,15.9,2.6,17.5,3.2v0.6L21.6,39.2L21.6,39.2z
	 M21.6,7.8V7.1h31.1v0.6c-1.6,0.6-9.2,3.2-17.5,3.2C29.8,10.9,25.3,9.9,21.6,7.8z"/>
</svg>
