<?xml version="1.0" encoding="utf-8"?>
<!-- Generator: Adobe Illustrator 17.1.0, SVG Export Plug-In . SVG Version: 6.00 Build 0)  -->
<!DOCTYPE svg PUBLIC "-//W3C//DTD SVG 1.1//EN" "http://www.w3.org/Graphics/SVG/1.1/DTD/svg11.dtd">
<svg version="1.1" id="Layer_1" xmlns="http://www.w3.org/2000/svg" xmlns:xlink="http://www.w3.org/1999/xlink" x="0px" y="0px"
	 viewBox="0 25.4 100 49.2" enable-background="new 0 25.4 100 49.2" xml:space="preserve">
<g>
	<path fill="#8EBE38" d="M33.7,52.2c-0.1-0.8-0.2-1.6-0.2-2.4c0-0.4,0-0.8,0-1.2L24,50.1c0.2,0.4,0.3,0.7,0.5,1.1
		c0.3,0.7,0.5,1.5,0.6,2.3c0.2,1.2,0.2,2.4,0.1,3.6C25,57.6,25,58,24.9,58.4l10.3-1.6c-0.2-0.4-0.3-0.7-0.5-1.1
		C34.2,54.5,33.9,53.4,33.7,52.2z"/>
	<path fill="#8EBE38" d="M76,49c-0.5-1.1-0.9-2.2-1.1-3.4c-0.1-0.8-0.2-1.6-0.1-2.4c0-0.4,0-0.8,0.1-1.2l-9.6,1.5
		c0.1,0.4,0.3,0.8,0.4,1.1c0.2,0.8,0.4,1.5,0.6,2.3c0.2,1.2,0.2,2.4,0.2,3.6c0,0.4-0.1,0.8-0.1,1.2l10.3-1.6
		C76.4,49.8,76.2,49.4,76,49L76,49z"/>
	<path fill="#8EBE38" d="M10.6,44.1C4.3,45.1,0,51.1,1,57.4S8,68,14.3,67s10.6-7,9.6-13.3C22.9,47.4,16.9,43.1,10.6,44.1z"/>
	<path fill="#8EBE38" d="M85.7,32.1c-6.3,1-10.6,6.9-9.6,13.3c1,6.3,7,10.6,13.3,9.6c6.3-1,10.6-7,9.6-13.3S92,31.1,85.7,32.1z"/>
	<path fill="#8EBE38" d="M47.5,33.8c-8.7,1.4-14.6,9.6-13.2,18.2c1.4,8.7,9.6,14.6,18.2,13.2c8.7-1.4,14.6-9.6,13.2-18.2
		C64.3,38.4,56.2,32.4,47.5,33.8z M52.3,64.1c-8,1.3-15.6-4.2-16.9-12.2S39.7,36.3,47.7,35s15.6,4.2,16.9,12.2
		C65.8,55.3,60.3,62.8,52.3,64.1z"/>
</g>
</svg>
