<?xml version="1.0" encoding="utf-8"?>
<!-- Generator: Adobe Illustrator 16.0.4, SVG Export Plug-In . SVG Version: 6.00 Build 0)  -->
<!DOCTYPE svg PUBLIC "-//W3C//DTD SVG 1.1//EN" "http://www.w3.org/Graphics/SVG/1.1/DTD/svg11.dtd">
<svg version="1.1" id="Layer_1" xmlns="http://www.w3.org/2000/svg" xmlns:xlink="http://www.w3.org/1999/xlink" x="0px" y="0px"
	 width="183.289px" height="64px" viewBox="-0.304 -0.5 183.289 64" enable-background="new -0.304 -0.5 183.289 64"
	 xml:space="preserve">
<g>
	<path fill="#19325A" d="M166.809,14.221V6.014h6.726c2.186,0,4.083,1.813,4.083,4c0,2.311-1.897,4.208-4.083,4.208H166.809z
		 M161.406,28.758c0,0.414,0.33,1.179,0.783,1.179h3.794c0.415,0,0.783-0.766,0.783-1.179V18.635h4.58l5.388,10.537
		c0.082,0.164,0.386,0.766,0.757,0.766h4.333c0.703,0,0.893-1.053,0.602-1.59l-5.552-10.084c3.586-1.443,6.104-4.536,6.104-8.333
		c0-4.91-4.041-8.869-8.993-8.869h-11.796c-0.453,0-0.783,0.372-0.783,0.783V28.758L161.406,28.758z M137.18,29.154
		c0,0.412,0.331,0.783,0.782,0.783h16.394c0.455,0,1.18-0.372,1.18-0.783v-3.384c0-0.412-0.725-0.784-1.18-0.784h-11.814V17.77
		h10.584c0.414,0,1.178-0.33,1.178-0.784v-3.424c0-0.412-0.764-0.783-1.178-0.783h-10.584V6.014h11.814
		c0.455,0,1.18-0.373,1.18-0.784V1.848c0-0.412-0.725-0.783-1.18-0.783h-16.394c-0.451,0-0.782,0.371-0.782,0.783V29.154z
		 M105.255,29.773c0.084,0.33,0.415,0.578,0.744,0.578h0.66c0.411,0,0.578-0.206,0.703-0.453l7.302-18.687h0.207l7.384,18.687
		c0.081,0.248,0.33,0.453,0.701,0.453h0.66c0.329,0,0.661-0.248,0.744-0.578l7.797-27.327c0.166-0.576-0.164-1.383-0.745-1.383
		h-3.795c-0.328,0-0.659,0.684-0.742,0.973L122.667,18.1h-0.165l-6.6-16.306c-0.086-0.246-0.289-0.748-0.704-0.748h-0.743
		c-0.41,0-0.618,0.503-0.7,0.748l-6.56,16.306h-0.165l-4.292-16.063c-0.082-0.288-0.412-0.973-0.74-0.973h-3.799
		c-0.576,0-0.907,0.807-0.741,1.383L105.255,29.773z M39.97,14.428V6.137h4.786c2.31,0,4.248,1.732,4.248,4
		c0,2.435-1.939,4.292-4.248,4.292H39.97z M34.607,28.758c0,0.414,0.33,1.179,0.783,1.179h3.795c0.414,0,0.784-0.766,0.784-1.179
		v-9.299h5.155c5.034,0,9.199-4.165,9.199-9.28c0-4.991-4.165-9.115-9.239-9.115h-9.693c-0.454,0-0.783,0.371-0.783,0.783
		L34.607,28.758L34.607,28.758z M5.064,15.542c0-5.199,4.249-9.528,9.446-9.528c5.196,0,9.488,4.33,9.488,9.528
		c0,5.196-4.292,9.444-9.488,9.444C9.312,24.986,5.064,20.738,5.064,15.542 M-0.299,15.542c0,8.248,6.559,14.808,14.809,14.808
		c8.251,0,14.851-6.56,14.851-14.808c0-8.251-6.599-14.893-14.851-14.893C6.26,0.649-0.299,7.291-0.299,15.542"/>
	<g>
		<path fill="#0087CD" d="M85.151,0H70.532l1.524,3.184l0.006,0.002c0.063,0.143,0.167,0.271,0.306,0.364
			c0.238,0.162,0.618,0.15,0.618,0.15h11.282c1.705,1.056,6.345,4.417,6.345,11.8l-0.003-0.013c0,5.986-2.989,9.526-5.111,11.216
			c-0.001,0.001-0.002,0.004-0.005,0.005c-0.21,0.166-0.347,0.421-0.347,0.708c0,0.169,0.047,0.324,0.131,0.459v0.006l1.219,2.301
			c2.522-1.704,7.716-6.243,7.716-14.695l0.002,0.013C94.216,4.337,85.151,0,85.151,0"/>
		<path fill="#0087CD" d="M81.283,27.912c0,0-0.002-0.001-0.003-0.002c-0.066-0.143-0.167-0.27-0.308-0.365
			c-0.239-0.16-0.505-0.146-0.505-0.146H68.851c-1.706-1.058-6.346-4.517-6.346-11.897c0-5.988,2.992-9.526,5.112-11.215
			c0.002-0.003,0.003-0.004,0.004-0.005c0.21-0.167,0.348-0.42,0.348-0.708c0-0.172-0.05-0.326-0.13-0.46V3.109l-1.221-2.304
			c-2.523,1.708-7.716,6.242-7.716,14.696C58.902,26.664,67.965,31,67.965,31h14.876L81.283,27.912z"/>
		<path fill="#0087CD" d="M79.89,19.277v1.053c0,1.745-1.437,3.159-3.208,3.159c-1.771,0-3.207-1.415-3.207-3.159v-1.053H79.89z"/>
		<path fill="#0087CD" d="M82.04,7.729c0.679,0,0.679,0.611,0.679,0.611v6.696c0,0.608-0.679,0.608-0.679,0.608h-1.394
			c-0.677,0-0.677-0.608-0.677-0.608V8.34c0-0.611,0.677-0.611,0.677-0.611H82.04L82.04,7.729z"/>
		<path fill="#0087CD" d="M71.338,7.729c0,0-0.677,0-0.677,0.611v6.696c0,0,0,0.608,0.677,0.608h1.394c0,0,0.678,0,0.678-0.608V8.34
			c0,0,0-0.611-0.678-0.611H71.338L71.338,7.729z"/>
	</g>
</g>
<g>
	<path fill="#19325A" d="M166.812,46.22v-8.209h6.726c2.186,0,4.085,1.815,4.085,4.001c0,2.312-1.899,4.208-4.085,4.208H166.812z
		 M161.41,60.759c0,0.413,0.33,1.181,0.783,1.181h3.795c0.414,0,0.783-0.768,0.783-1.181V50.635h4.581l5.388,10.537
		c0.081,0.166,0.386,0.768,0.757,0.768h4.333c0.702,0,0.891-1.055,0.602-1.589l-5.554-10.085c3.588-1.445,6.106-4.538,6.106-8.335
		c0-4.909-4.041-8.869-8.993-8.869h-11.798c-0.453,0-0.783,0.371-0.783,0.783V60.759L161.41,60.759z M137.183,61.153
		c0,0.412,0.33,0.785,0.781,0.785h16.396c0.455,0,1.178-0.373,1.178-0.785v-3.382c0-0.411-0.723-0.782-1.178-0.782h-11.815v-7.218
		h10.585c0.414,0,1.178-0.33,1.178-0.785v-3.423c0-0.411-0.764-0.783-1.178-0.783h-10.585v-6.768h11.815
		c0.455,0,1.178-0.371,1.178-0.782v-3.382c0-0.412-0.723-0.784-1.178-0.784h-16.396c-0.451,0-0.781,0.372-0.781,0.784V61.153z
		 M105.257,61.773c0.083,0.329,0.413,0.576,0.742,0.576h0.66c0.412,0,0.579-0.204,0.703-0.452l7.303-18.688h0.207l7.385,18.688
		c0.081,0.248,0.33,0.452,0.701,0.452h0.66c0.329,0,0.661-0.247,0.744-0.576l7.798-27.328c0.165-0.577-0.165-1.384-0.745-1.384
		h-3.796c-0.328,0-0.659,0.684-0.742,0.973L122.669,50.1h-0.165l-6.601-16.306c-0.085-0.248-0.288-0.749-0.703-0.749h-0.744
		c-0.409,0-0.618,0.502-0.7,0.749L107.197,50.1h-0.167l-4.292-16.065c-0.08-0.287-0.411-0.973-0.739-0.973h-3.798
		c-0.577,0-0.908,0.807-0.743,1.384L105.257,61.773z M39.967,46.426v-8.291h4.786c2.31,0,4.249,1.734,4.249,4.001
		c0,2.435-1.939,4.29-4.249,4.29H39.967z M34.604,60.759c0,0.413,0.33,1.181,0.784,1.181h3.794c0.414,0,0.784-0.768,0.784-1.181
		v-9.3h5.156c5.034,0,9.2-4.166,9.2-9.282c0-4.99-4.167-9.115-9.241-9.115h-9.693c-0.454,0-0.783,0.371-0.783,0.783L34.604,60.759
		L34.604,60.759z M5.059,47.543c0-5.201,4.249-9.53,9.446-9.53s9.489,4.331,9.489,9.53c0,5.195-4.292,9.446-9.489,9.446
		C9.308,56.987,5.059,52.738,5.059,47.543 M-0.304,47.543c0,8.248,6.559,14.807,14.81,14.807c8.252,0,14.852-6.559,14.852-14.807
		c0-8.253-6.6-14.895-14.852-14.895C6.255,32.648-0.304,39.29-0.304,47.543"/>
	<path fill="#0087CD" d="M85.15,32h-14.62l1.524,3.184l0.005,0.003c0.064,0.144,0.167,0.271,0.307,0.364
		c0.238,0.162,0.619,0.15,0.619,0.15h11.282c1.706,1.057,6.346,4.418,6.346,11.8l-0.003-0.015c0,5.989-2.989,9.529-5.112,11.219
		c0,0-0.001,0.004-0.004,0.004c-0.209,0.167-0.347,0.422-0.347,0.708c0,0.169,0.048,0.325,0.131,0.461v0.005l1.22,2.302
		c2.522-1.705,7.716-6.244,7.716-14.698l0.002,0.015C94.216,36.334,85.15,32,85.15,32"/>
	<path fill="#0087CD" d="M81.283,59.912c0,0-0.002,0-0.004-0.002c-0.066-0.143-0.167-0.271-0.308-0.364
		c-0.239-0.16-0.505-0.145-0.505-0.145H68.849c-1.705-1.059-6.346-4.519-6.346-11.897c0-5.987,2.992-9.528,5.113-11.219
		c0.002-0.002,0.003-0.003,0.004-0.003c0.211-0.167,0.348-0.421,0.348-0.708c0-0.17-0.049-0.325-0.13-0.461v-0.005l-1.22-2.304
		c-2.524,1.707-7.717,6.243-7.717,14.697C58.9,58.666,67.964,63,67.964,63h14.877L81.283,59.912z"/>
	<path fill="#0087CD" d="M79.89,51.277v1.052c0,1.745-1.438,3.159-3.209,3.159s-3.207-1.414-3.207-3.159v-1.052H79.89z"/>
	<path fill="#0087CD" d="M82.04,39.729c0.679,0,0.679,0.61,0.679,0.61v6.696c0,0.608-0.679,0.608-0.679,0.608h-1.394
		c-0.678,0-0.678-0.608-0.678-0.608V40.34c0-0.61,0.678-0.61,0.678-0.61H82.04z"/>
	<path fill="#0087CD" d="M67.161,45.303c0,0,0,0.675,0.611,0.675h6.697c0,0,0.608,0,0.608-0.675v-1.395c0,0,0-0.679-0.608-0.679
		h-6.697c0,0-0.611,0-0.611,0.679V45.303z"/>
</g>
</svg>
