<?xml version="1.0" encoding="utf-8"?>
<!-- Generator: Adobe Illustrator 17.1.0, SVG Export Plug-In . SVG Version: 6.00 Build 0)  -->
<!DOCTYPE svg PUBLIC "-//W3C//DTD SVG 1.1//EN" "http://www.w3.org/Graphics/SVG/1.1/DTD/svg11.dtd">
<svg version="1.1" id="Layer_1" xmlns="http://www.w3.org/2000/svg" xmlns:xlink="http://www.w3.org/1999/xlink" x="0px" y="0px"
	 viewBox="0 0 87.8 100" enable-background="new 0 0 87.8 100" xml:space="preserve">
<g id="Layer_1_1_">
</g>
<g id="Layer_2">
	<path fill="#8EBE38" d="M70.3,14.6l-0.2-0.1L70,14.3c-3.9-6-10.2-10.5-17.8-12.8C48.9,0.5,45.3,0,41.6,0c-12,0-23.4,5.3-28.2,13.2
		l-0.1,0.2l-0.2,0.1C7.4,16,2.8,21.7,0.9,28.8c-2.1,7.7-0.6,15.6,3.9,21.9c3.4,4.7,7.1,6.9,11.1,6.9c1.6,0,3.2-0.3,5-1
		c5-2.4,7.3-5.1,7.4-5.2c0.1-0.2,0.3-0.3,0.5-0.3c0.4,0,0.7,0.3,0.7,0.7c0,0.6-2.3,2.7-4.3,4c-0.3,0.2-0.6,0.4-1,0.6
		c2.2,0.2,6,0.4,10.1,0.4c8.1,0,13.9-1,16.9-2.8l0.4-0.2l0.4,0.2c3.4,2.1,8,2.6,9.9,2.9c0.7,0.1,0.9,0.1,1.1,0.2
		c3,1.5,6.1,2.3,9.1,2.3c7.1,0,12.7-4.4,14.6-11.4C89.5,38.4,87.2,21,70.3,14.6z"/>
	<path fill="#8EBE38" d="M52,77.7c1.2-6.5,4.5-14.2,8.5-19.6c-2.3-0.3-5.8-1-8.7-2.7c0,0-0.1,0-0.1,0.1c-0.9,3-2.2,6.2-3.4,9.2
		c-0.8,2.2-1.2,7.2-2,11.4c0-0.1-0.5-1.6-0.6-1.7c-1.5-4.4-2.7-7.7-3.4-12.3c-0.3-1.7-0.1-3.2,0.5-4.3c-2.4,0.3-5.1,0.4-8.2,0.4
		c-3.7,0-7.2-0.2-9.5-0.4c1.8,2.3,3.8,4.4,6.1,6.7c6.2,6.2,9,14.3,10.3,22.8c0.2,1.4,0.6,3.6,0.9,6.4c0.3,2.8-0.5,5-0.6,6.3h8.1
		c-0.2-1.4-0.6-3.8-0.5-6.6C49.4,90.6,51.5,80.1,52,77.7z"/>
</g>
</svg>
